<?xml version="1.0" encoding="UTF-8"?>
<svg width="63px" height="34px" viewBox="0 0 63 34" version="1.1" xmlns="http://www.w3.org/2000/svg" xmlns:xlink="http://www.w3.org/1999/xlink">
    <!-- Generator: Sketch 54.1 (76490) - https://sketchapp.com -->
    <title>Group 3</title>
    <desc>Created with Sketch.</desc>
    <g id="Flows" stroke="none" stroke-width="1" fill="none" fill-rule="evenodd">
        <g id="Demo" transform="translate(-173.000000, -17.000000)">
            <g id="Group-10" transform="translate(174.000000, 18.000000)">
                <g id="Group-3">
                    <g id="stripe-press" stroke="#3D424E" stroke-linecap="round" stroke-width="1.05">
                        <g id="Group" transform="translate(0.247396, 0.000000)">
                            <path d="M2.83886719,25.9412633 L2.83886719,15.9700158" id="p-bottom-middle" stroke-dasharray="9.847761154174805"></path>
                            <path d="M5.5515625,25.9412633 L5.5515625,17.8624522" id="p-bottom-inner" stroke-dasharray="7.978760719299316"></path>
                            <path d="M0.147200521,26.1538966 L0.147200521,9.39964666" id="p-bottom-outer" stroke-dasharray="16.54676055908203"></path>
                            <path d="M11.3554687,0.107571189 L9.96757812,0.107571189 C4.14264323,0.0225178671 0.147200521,4.27518399 0.147200521,9.39964666 L0.147200521,9.39964666 C0.147200521,12.9506229 2.12389323,16.0550691 5.02584635,17.6072923 C6.14036458,18.2026655 7.36002604,18.5428788 8.68483073,18.9043554 C9.04231771,18.9894088 9.39980469,19.0744621 9.75729167,19.1595154 C11.0610677,19.457202 12.3648437,20.095102 12.8905599,21.5835351 C13.121875,22.221435 13.1429036,22.9018616 12.9536458,23.5610248 C12.5120443,25.177038 10.9138672,26.3465211 8.70585937,26.3465211 L0.147200521,26.3465211" id="s-left" stroke-dasharray="51.4294189453125"></path>
                            <path d="M15.140625,2.82927751 L9.94654948,2.82927751 C5.86699219,2.78675084 2.81783854,5.76361713 2.81783854,9.39964666 C2.81783854,13.2057828 5.59361979,15.5447492 9.27363281,16.2677024 C13.0587891,17.0544457 15.8135417,18.9043554 15.8135417,22.5191216 C15.8135417,26.1338878 12.8905599,29.0894908 8.68483073,29.0894908 L2.83886719,29.0894908" id="s-middle" stroke-dasharray="52.58231964111328"></path>
                            <path d="M14.6149089,5.57224715 C15.3719401,6.65667701 15.8345703,7.97500351 15.8345703,9.39964666 C15.8345703,11.3558731 14.9303385,13.2695728 13.479362,14.502846 L13.2270182,14.7154793" id="p-top-middle" stroke-dasharray="10.10022239685058"></path>
                            <path d="M17.3486328,5.57224715 C17.5799479,5.57224715 17.7692057,5.69982714 17.8533203,5.91246044 C18.2738932,6.97562697 18.526237,8.16637349 18.526237,9.37838333 C18.526237,11.929983 17.4958333,14.247686 15.8345703,15.9274892 L15.5822266,16.1826491" id="p-top-outer" stroke-dasharray="11.69918403625488"></path>
                            <path d="M9.33671875,5.57224715 C11.4395833,5.57224715 13.121875,7.29457693 13.121875,9.39964666 C13.121875,11.5047164 11.4185547,13.5034695 9.33671875,13.5034695" id="p-top-inner" stroke-dasharray="12.05941772460938"></path>
                            <path d="M17.3486328,5.57224715 L9.33671875,5.57224715 L9.33671875,5.57224715 C7.25488281,5.57224715 5.5515625,7.2733136 5.5515625,9.39964666 C5.5515625,11.5259797 7.14973958,13.0994662 9.33671875,13.5459961 C14.5097656,14.4603193 18.526237,17.394659 18.526237,22.540385 C18.526237,27.686111 14.425651,31.8111971 8.70585937,31.8111971 L6.5609375,31.8111971" id="s-right" stroke-dasharray="51.10769805908203"></path>
                        </g>
                    </g>
                    <g id="Group" transform="translate(28.000000, 6.221739)" fill="#3D424E" fill-rule="nonzero">
                        <path d="M0.2125,7.53859957 C1.0625,8.06686043 1.94791667,8.34859957 2.7625,8.34859957 C3.78958333,8.34859957 4.4625,7.8203387 4.4625,7.04555609 C4.4625,5.17903435 0,6.09468652 0,2.9251213 C0,1.37555609 1.34583333,0.283816957 3.29375,0.283816957 C4.10833333,0.283816957 4.95833333,0.459903913 5.77291667,0.776860435 L5.77291667,2.36164304 C4.99375,1.90381696 4.17916667,1.65729522 3.43541667,1.65729522 C2.47916667,1.65729522 1.77083333,2.1503387 1.77083333,2.88990391 C1.77083333,4.72120826 6.23333333,3.80555609 6.23333333,7.0103387 C6.23333333,8.6303387 4.85208333,9.72207783 2.90416667,9.72207783 C2.01875,9.72207783 1.09791667,9.51077348 0.2125,9.12338217 C0.2125,9.12338217 0.2125,7.53859957 0.2125,7.53859957 Z" id="Shape"></path>
                        <path d="M9.42083333,2.9603387 L11.3333333,2.9603387 L11.3333333,4.33381696 L9.42083333,4.33381696 L9.42083333,7.39773 C9.42083333,7.92599087 9.81041667,8.34859957 10.4125,8.34859957 C10.6958333,8.34859957 11.0145833,8.24294739 11.36875,8.06686043 L11.36875,9.47555609 C10.8729167,9.65164304 10.4125,9.75729522 9.95208333,9.75729522 C8.64166667,9.75729522 7.72083333,8.87686043 7.72083333,7.60903435 L7.72083333,4.33381696 L6.5875,4.33381696 L6.5875,2.9603387 L7.72083333,2.9603387 L7.72083333,1.09381696 L9.42083333,1.09381696 L9.42083333,2.9603387 Z" id="Shape"></path>
                        <path d="M12.4666667,2.9603387 L14.1666667,2.9603387 L14.1666667,3.62946913 C14.6625,3.10120826 15.2291667,2.81946913 15.7958333,2.81946913 C15.9729167,2.81946913 16.1854167,2.81946913 16.3625,2.88990391 L16.3625,4.40425174 C16.1854167,4.33381696 15.9729167,4.33381696 15.7604167,4.33381696 C15.19375,4.33381696 14.5916667,4.65077348 14.1666667,5.17903435 L14.1666667,9.61642565 L12.4666667,9.61642565 L12.4666667,2.9603387 Z" id="Shape"></path>
                        <path d="M18.2041667,0.178164783 C18.7708333,0.178164783 19.1604167,0.565556087 19.1604167,1.12903435 C19.1604167,1.69251261 18.7354167,2.07990391 18.2041667,2.07990391 C17.6375,2.07990391 17.2479167,1.69251261 17.2479167,1.12903435 C17.2125,0.565556087 17.6375,0.178164783 18.2041667,0.178164783 Z M17.3541667,2.9603387 L19.0541667,2.9603387 L19.0541667,9.58120826 L17.3541667,9.58120826 L17.3541667,2.9603387 Z" id="Shape"></path>
                        <path d="M20.4354167,2.9603387 L22.1354167,2.9603387 L22.1354167,3.41816478 C22.6666667,3.03077348 23.26875,2.81946913 23.8354167,2.81946913 C25.60625,2.81946913 26.8458333,4.26338217 26.8458333,6.30599087 C26.8458333,8.34859957 25.60625,9.79251261 23.8354167,9.79251261 C23.26875,9.79251261 22.6666667,9.58120826 22.1354167,9.15859957 L22.1354167,12.5394691 L20.4354167,12.5394691 L20.4354167,2.9603387 Z M23.48125,4.26338217 C23.0208333,4.26338217 22.5604167,4.47468652 22.1354167,4.86207783 L22.1354167,7.71468652 C22.525,8.10207783 22.9854167,8.31338217 23.48125,8.31338217 C24.4375,8.31338217 25.1104167,7.50338217 25.1104167,6.30599087 C25.1104167,5.07338217 24.4375,4.26338217 23.48125,4.26338217 Z" id="Shape"></path>
                        <path d="M30.8479167,2.78425174 C32.5833333,2.78425174 33.7875,4.15773 33.7875,6.09468652 C33.7875,6.27077348 33.7875,6.48207783 33.7520833,6.72859957 L29.21875,6.72859957 C29.325,7.74990391 30.1395833,8.41903435 31.2375,8.41903435 C31.8395833,8.41903435 32.5479167,8.20773 33.2208333,7.7851213 L33.2208333,9.19381696 C32.4770833,9.54599087 31.6979167,9.72207783 30.9541667,9.72207783 C28.9354167,9.72207783 27.51875,8.27816478 27.51875,6.2003387 C27.5541667,4.22816478 28.9354167,2.78425174 30.8479167,2.78425174 Z M32.1229167,5.63686043 C32.0520833,4.72120826 31.5208333,4.12251261 30.7770833,4.12251261 C29.9625,4.12251261 29.325,4.72120826 29.21875,5.63686043 L32.1229167,5.63686043 Z" id="Shape"></path>
                        <path d="M0.566666667,11.44773 L3.825,11.44773 C5.70208333,11.44773 7.0125,12.6451213 7.0125,14.3707735 C7.0125,16.0964257 5.66666667,17.293817 3.825,17.293817 L2.30208333,17.293817 L2.30208333,20.5690343 L0.602083333,20.5690343 L0.602083333,11.44773 L0.566666667,11.44773 L0.566666667,11.44773 Z M2.26666667,15.9203387 L3.57708333,15.9203387 C4.56875,15.9203387 5.24166667,15.2864257 5.24166667,14.3707735 C5.24166667,13.4551213 4.53333333,12.8212083 3.57708333,12.8212083 L2.26666667,12.8212083 L2.26666667,15.9203387 Z" id="Shape"></path>
                        <path d="M7.89791667,13.9481648 L9.59791667,13.9481648 L9.59791667,14.6172952 C10.09375,14.0890343 10.6604167,13.8072952 11.2270833,13.8072952 C11.4041667,13.8072952 11.6166667,13.8072952 11.79375,13.87773 L11.79375,15.3920778 C11.6166667,15.321643 11.4041667,15.321643 11.1916667,15.321643 C10.625,15.321643 10.0229167,15.6385996 9.59791667,16.1668604 L9.59791667,20.6042517 L7.89791667,20.6042517 L7.89791667,13.9481648 L7.89791667,13.9481648 Z" id="Shape"></path>
                        <path d="M15.3,13.8072952 C17.0354167,13.8072952 18.2395833,15.1807735 18.2395833,17.11773 C18.2395833,17.293817 18.2395833,17.5051213 18.2041667,17.751643 L13.6708333,17.751643 C13.7770833,18.7729474 14.5916667,19.4420778 15.6895833,19.4420778 C16.2916667,19.4420778 17,19.2307735 17.6729167,18.8081648 L17.6729167,20.2168604 C16.9291667,20.5690343 16.15,20.7451213 15.40625,20.7451213 C13.3875,20.7451213 11.9708333,19.3012083 11.9708333,17.2233822 C12.00625,15.2159909 13.3875,13.8072952 15.3,13.8072952 Z M16.6104167,16.6246865 C16.5395833,15.7090343 16.0083333,15.1103387 15.2645833,15.1103387 C14.45,15.1103387 13.8125,15.7090343 13.70625,16.6246865 L16.6104167,16.6246865 Z" id="Shape"></path>
                        <path d="M19.1958333,18.8081648 C19.8333333,19.1955561 20.50625,19.4068604 21.14375,19.4068604 C21.7458333,19.4068604 22.1708333,19.0899039 22.1708333,18.6672952 C22.1708333,17.5403387 19.0895833,18.1390343 19.0895833,15.8146865 C19.0895833,14.6172952 20.1520833,13.7720778 21.6395833,13.7720778 C22.2770833,13.7720778 22.9145833,13.9129474 23.5166667,14.1594691 L23.5166667,15.6385996 C22.95,15.2864257 22.3125,15.1103387 21.7458333,15.1103387 C21.1791667,15.1103387 20.7895833,15.3920778 20.7895833,15.7794691 C20.7895833,16.8359909 23.8708333,16.2372952 23.8708333,18.6320778 C23.8708333,19.8646865 22.8083333,20.7451213 21.25,20.7451213 C20.5770833,20.7451213 19.9041667,20.5690343 19.1958333,20.2872952 L19.1958333,18.8081648 L19.1958333,18.8081648 Z" id="Shape"></path>
                        <path d="M24.75625,18.8081648 C25.39375,19.1955561 26.0666667,19.4068604 26.7041667,19.4068604 C27.30625,19.4068604 27.73125,19.0899039 27.73125,18.6672952 C27.73125,17.5403387 24.65,18.1390343 24.65,15.8146865 C24.65,14.6172952 25.7125,13.7720778 27.2,13.7720778 C27.8375,13.7720778 28.475,13.9129474 29.0770833,14.1594691 L29.0770833,15.6385996 C28.5104167,15.2864257 27.8729167,15.1103387 27.30625,15.1103387 C26.7395833,15.1103387 26.35,15.3920778 26.35,15.7794691 C26.35,16.8359909 29.43125,16.2372952 29.43125,18.6320778 C29.43125,19.8646865 28.36875,20.7451213 26.8104167,20.7451213 C26.1375,20.7451213 25.4645833,20.5690343 24.75625,20.2872952 L24.75625,18.8081648 Z" id="Shape"></path>
                    </g>
                </g>
            </g>
        </g>
    </g>
</svg>